<?xml version="1.0" standalone="no"?><!DOCTYPE svg PUBLIC "-//W3C//DTD SVG 1.1//EN" "http://www.w3.org/Graphics/SVG/1.1/DTD/svg11.dtd"><svg t="1637330856377" class="icon" viewBox="0 0 1024 1024" version="1.1" xmlns="http://www.w3.org/2000/svg" p-id="5404" xmlns:xlink="http://www.w3.org/1999/xlink" width="200" height="200"><defs><style type="text/css"></style></defs><path d="M292.571429 694.857143q0-30.285714-21.428572-51.714286T219.428571 621.714286t-51.714285 21.428571T146.285714 694.857143t21.428572 51.714286T219.428571 768t51.714286-21.428571T292.571429 694.857143z m585.142857 0q0-30.285714-21.428572-51.714286T804.571429 621.714286t-51.714286 21.428571-21.428572 51.714286 21.428572 51.714286 51.714286 21.428571 51.714285-21.428571 21.428572-51.714286z m-26.285715-226.285714l-41.142857-219.428572q-2.857143-13.142857-12.857143-21.428571T774.285714 219.428571H249.714286q-13.142857 0-23.142857 8.285715T213.714286 249.142857l-41.142857 219.428572q-2.857143 17.142857 8 30.285714t28 13.142857h606.857142q17.142857 0 28-13.142857t8-30.285714z m-129.142857-349.714286q0-11.428571-8-19.428572t-19.428571-8H329.142857q-11.428571 0-19.428571 8t-8 19.428572 8 19.428571 19.428571 8h365.714286q11.428571 0 19.428571-8t8-19.428571z m228.571429 414.285714v344.571429h-73.142857v73.142857q0 30.285714-21.428572 51.714286T804.571429 1024t-51.714286-21.428571-21.428572-51.714286v-73.142857H292.571429v73.142857q0 30.285714-21.428572 51.714286T219.428571 1024t-51.714285-21.428571T146.285714 950.857143v-73.142857H73.142857V533.142857q0-64 14.285714-127.428571l58.857143-259.428572q5.142857-44.571429 55.714286-78.285714t131.428571-50.857143T512 0t178.571429 17.142857 131.428571 50.857143 55.714286 78.285714l60 259.428572q13.142857 58.285714 13.142857 127.428571z" p-id="5405"></path></svg>