<?xml version="1.0" standalone="no"?><!DOCTYPE svg PUBLIC "-//W3C//DTD SVG 1.1//EN" "http://www.w3.org/Graphics/SVG/1.1/DTD/svg11.dtd"><svg t="1638954821099" class="icon" viewBox="0 0 1024 1024" version="1.1" xmlns="http://www.w3.org/2000/svg" p-id="3763" xmlns:xlink="http://www.w3.org/1999/xlink" width="200" height="200"><defs><style type="text/css"></style></defs><path d="M291 128h-59a8 8 0 0 0-8 8v752a8 8 0 0 0 8 8h59V128z m64 0v768h437a8 8 0 0 0 8-8V136a8 8 0 0 0-8-8H355zM192 64h640c17.673 0 32 14.327 32 32v832c0 17.673-14.327 32-32 32H192c-17.673 0-32-14.327-32-32V96c0-17.673 14.327-32 32-32z m223 160h208c17.673 0 32 14.327 32 32 0 17.673-14.327 32-32 32H415c-17.673 0-32-14.327-32-32 0-17.673 14.327-32 32-32z m0 128h121c17.673 0 32 14.327 32 32 0 17.673-14.327 32-32 32H415c-17.673 0-32-14.327-32-32 0-17.673 14.327-32 32-32z m254.126 51.092L637 456v321c0 8.837 7.163 16 16 16h33c8.837 0 16-7.163 16-16V456l-32.874-52.908zM766 456v369c0 17.673-14.327 32-32 32H605c-17.673 0-32-14.327-32-32V456l89.815-136.626a8 8 0 0 1 13.37 0L766 456z" p-id="3764"></path></svg>